<?xml version="1.0" encoding="UTF-8" standalone="no"?>
<svg
   xmlns:dc="http://purl.org/dc/elements/1.1/"
   xmlns:cc="http://creativecommons.org/ns#"
   xmlns:rdf="http://www.w3.org/1999/02/22-rdf-syntax-ns#"
   xmlns:svg="http://www.w3.org/2000/svg"
   xmlns="http://www.w3.org/2000/svg"
   viewBox="0 0 170.66667 170.66667"
   height="170.66667"
   width="170.66667"
   xml:space="preserve"
   id="svg2"
   version="1.1"><metadata
     id="metadata8"><rdf:RDF><cc:Work
         rdf:about=""><dc:format>image/svg+xml</dc:format><dc:type
           rdf:resource="http://purl.org/dc/dcmitype/StillImage" /></cc:Work></rdf:RDF></metadata><defs
     id="defs6"><clipPath
       id="clipPath20"
       clipPathUnits="userSpaceOnUse"><path
         id="path18"
         d="M 0,128 H 128 V 0 H 0 Z" /></clipPath></defs><g
     transform="matrix(1.3333333,0,0,-1.3333333,0,170.66667)"
     id="g10"><path
       id="path12"
       style="fill:#5bc0de;fill-opacity:1;fill-rule:nonzero;stroke:none"
       d="M 112,16 H 16 v 96 h 96 z" /><g
       id="g14"><g
         clip-path="url(#clipPath20)"
         id="g16"><g
           transform="translate(96.0791,74.6561)"
           id="g22"><path
             id="path24"
             style="fill:#ffffff;fill-opacity:1;fill-rule:nonzero;stroke:none"
             d="M 0,0 H -4.264 V -4.264 H -6.323 V 0 h -4.264 v 2.059 h 4.264 v 4.264 h 2.059 V 2.059 H 0 Z m -3.911,-18.358 c -0.571,-1.304 -1.361,-2.279 -2.37,-2.923 -1.009,-0.645 -2.128,-0.967 -3.358,-0.967 -1.054,0 -2.018,0.227 -2.894,0.679 -0.659,0.354 -1.377,1.019 -2.155,1.993 v -2.318 h -5.625 v 21.642 h 6.068 v -7.499 c 0.6,0.63 1.282,1.102 2.044,1.417 0.763,0.315 1.607,0.473 2.532,0.473 1.909,0 3.489,-0.687 4.739,-2.06 1.25,-1.373 1.875,-3.343 1.875,-5.912 0,-1.712 -0.286,-3.221 -0.856,-4.525 m -20.077,-3.536 h -5.611 v 2.539 c -0.836,-1.043 -1.68,-1.786 -2.532,-2.229 -0.851,-0.442 -1.896,-0.664 -3.137,-0.664 -1.653,0 -2.95,0.495 -3.889,1.484 -0.941,0.989 -1.41,2.512 -1.41,4.569 v 9.979 h 6.037 v -8.621 c 0,-0.984 0.183,-1.683 0.547,-2.096 0.364,-0.414 0.876,-0.621 1.535,-0.621 0.718,0 1.307,0.276 1.764,0.827 0.458,0.551 0.687,1.541 0.687,2.968 v 7.543 h 6.009 z m -20.639,3.204 c -0.768,-1.172 -1.84,-2.06 -3.218,-2.664 -1.378,-0.606 -3.115,-0.909 -5.211,-0.909 -3.682,0 -6.23,0.709 -7.647,2.126 -1.418,1.418 -2.22,3.218 -2.407,5.403 l 6.363,0.399 c 0.138,-1.033 0.418,-1.821 0.841,-2.362 0.689,-0.876 1.673,-1.314 2.953,-1.314 0.954,0 1.69,0.224 2.207,0.672 0.517,0.448 0.775,0.967 0.775,1.557 0,0.561 -0.246,1.063 -0.738,1.506 -0.493,0.443 -1.634,0.861 -3.425,1.255 -2.933,0.659 -5.024,1.535 -6.274,2.627 -1.26,1.093 -1.89,2.486 -1.89,4.178 0,1.112 0.322,2.163 0.967,3.152 0.644,0.989 1.614,1.766 2.908,2.333 1.294,0.566 3.068,0.849 5.322,0.849 2.765,0 4.874,-0.515 6.326,-1.543 1.452,-1.028 2.315,-2.665 2.591,-4.909 l -6.304,-0.369 c -0.167,0.975 -0.519,1.683 -1.055,2.126 -0.537,0.443 -1.277,0.664 -2.222,0.664 -0.778,0 -1.363,-0.165 -1.757,-0.494 -0.394,-0.33 -0.59,-0.731 -0.59,-1.203 0,-0.345 0.162,-0.655 0.487,-0.931 0.314,-0.285 1.063,-0.551 2.244,-0.797 2.923,-0.63 5.016,-1.267 6.281,-1.911 1.265,-0.645 2.185,-1.445 2.761,-2.399 0.576,-0.955 0.864,-2.023 0.864,-3.204 0,-1.388 -0.384,-2.667 -1.152,-3.838 M 9.018,-2.912 C 8.911,-0.046 8.745,2.815 8.239,5.643 7.908,7.495 7.417,9.299 6.505,10.959 c -0.656,1.195 -1.394,2.312 -2.596,3.07 -1.072,0.676 -2.131,1.333 -3.381,1.652 -2.142,0.549 -4.319,0.877 -6.512,1.092 -2.321,0.227 -4.645,0.438 -6.974,0.55 -3.6,0.175 -7.204,0.32 -10.808,0.368 -4.902,0.066 -9.806,0.071 -14.709,0.026 -6.286,-0.059 -12.568,-0.268 -18.829,-0.878 -2.203,-0.215 -4.398,-0.487 -6.559,-0.981 -0.967,-0.22 -1.933,-0.462 -2.799,-0.968 -0.622,-0.363 -1.22,-0.767 -1.823,-1.161 -0.494,-0.324 -0.91,-0.727 -1.258,-1.209 -0.866,-1.201 -1.5,-2.515 -1.941,-3.924 -0.792,-2.527 -1.079,-5.137 -1.267,-7.761 -0.103,-1.447 -0.18,-2.896 -0.225,-4.345 -0.075,-2.4 -0.169,-4.801 -0.156,-7.2 0.021,-3.732 0.106,-7.465 0.375,-11.189 0.142,-1.98 0.352,-3.952 0.769,-5.896 0.387,-1.8 0.98,-3.52 1.949,-5.102 0.61,-0.998 1.361,-1.833 2.41,-2.381 0.278,-0.144 0.528,-0.342 0.806,-0.485 0.547,-0.281 1.088,-0.592 1.665,-0.797 0.675,-0.24 1.38,-0.409 2.083,-0.557 2.886,-0.606 5.814,-0.898 8.748,-1.11 2.622,-0.19 5.248,-0.362 7.875,-0.449 4.925,-0.164 9.853,-0.262 14.576,-0.383 4.446,0.103 8.687,0.182 12.927,0.304 4.324,0.124 8.644,0.351 12.947,0.813 2.049,0.22 4.091,0.488 6.096,0.975 0.956,0.232 1.906,0.493 2.754,1.016 0.534,0.329 1.068,0.661 1.574,1.03 0.36,0.263 0.725,0.549 0.998,0.895 1.276,1.611 2.109,3.443 2.617,5.431 0.65,2.543 0.913,5.14 1.051,7.749 0.126,2.371 0.196,4.746 0.251,7.12 0.083,3.606 0.014,7.211 -0.121,10.814" /></g><g
           transform="translate(84.5648,64.3071)"
           id="g26"><path
             id="path28"
             style="fill:#ffffff;fill-opacity:1;fill-rule:nonzero;stroke:none"
             d="m 0,0 c -0.817,0 -1.483,-0.303 -2,-0.908 -0.517,-0.605 -0.775,-1.523 -0.775,-2.753 0,-1.349 0.253,-2.326 0.76,-2.93 0.507,-0.606 1.149,-0.909 1.927,-0.909 0.718,0 1.321,0.298 1.808,0.894 0.487,0.595 0.731,1.596 0.731,3.004 0,1.24 -0.239,2.15 -0.716,2.731 C 1.257,-0.291 0.68,0 0,0" /></g></g></g></g></svg>